# xmcd
#
# Track frame offsets:
# 150
# 10985
# 27334
# 40734
# 52762
# 65019
# 77316
# 90412
# 106160
# 123297
# 136606
# 160405
# 177305
# 195568
# 207849
# 219310
# 231646
# 244439
# 255895
# 276298
# 288717
# 299293
# 318757
# 330803
# 341987
#
# Disc length: 4748 seconds
#
#
# Revision: 0
# Processed by: cddbd v1.5.2PL0 Copyright (c) Steve Scherf et al.
# Submitted via: FreeRIP 2.951 
#
DISCID=5f128a19
DTITLE=Various Artist - Summer Soul
DYEAR=2002
DGENRE=Soul
TTITLE0=THE RASCALS - Groovin'
TTITLE1=DETROIT SPINNERS - Washing My Way Back To You
TTITLE2=THE FOUR TOPS - Reach Out, I'll Be There
TTITLE3=DIANA ROSS and THE SUPREMES - You Can't Hurry Love
TTITLE4=THE ISLEY BROTHERS - This Old Heart of Mine
TTITLE5=STEVIE WONDER - For Once In My Life
TTITLE6=THE TEMPTATIONS - My Girl
TTITLE7=DONALD BYRD - Love Has Come Around
TTITLE8=GROVER WASHINGTON JR - Just The Two Of Us
TTITLE9=SMOKEY ROBINSON and THE MIRACLES - The Tracks Of My Tears
TTITLE10=THE STYLISTICS - You Make Me Feel Brand New
TTITLE11=MARVIN GAYE - What's Going On
TTITLE12=FREEDIE JACKSON - Rock Me Tonight
TTITLE13=THE FOUR TOPS - I Can't Help Myself
TTITLE14=SAM and DAVE - Hold On, I'm Coming
TTITLE15=PERCY SLEDGE - Warm And Tender Love
TTITLE16=BEN E. KING - Spanish Harlem
TTITLE17=MARY WELLS - My Guy
TTITLE18=BARRY WHITE - You're The First, The Last, My Everything
TTITLE19=JAMES BROWN - I Got You
TTITLE20=ARETHA FRANKLIN - Respect
TTITLE21=LUTHER VANDROSS - Really Didn't Mean It
TTITLE22=THE DRIFTERS - Under The Broadwalk
TTITLE23=WILSON PICKETT - In The Midnight Hour
TTITLE24=RAY CHARLES - What I'd Say part 1
EXTD=Warner Music Poland
EXTT0=
EXTT1=
EXTT2=
EXTT3=
EXTT4=
EXTT5=
EXTT6=
EXTT7=
EXTT8=
EXTT9=
EXTT10=
EXTT11=
EXTT12=
EXTT13=
EXTT14=
EXTT15=
EXTT16=
EXTT17=
EXTT18=
EXTT19=
EXTT20=
EXTT21=
EXTT22=
EXTT23=
EXTT24=
PLAYORDER=
